<svg xmlns="http://www.w3.org/2000/svg" xmlns:xlink="http://www.w3.org/1999/xlink" width="120" height="16" viewBox="0 0 120 16"><defs><style>.a{fill:none;}.b{clip-path:url(#a);}.c{fill:#3d3936;}.d{clip-path:url(#b);}.e{fill:url(#c);}.f{clip-path:url(#d);}.g{fill:url(#e);}.h{clip-path:url(#f);}.i{fill:url(#g);}.j{clip-path:url(#h);}.k{fill:url(#i);}</style><clipPath id="a"><rect class="a" width="45.578" height="10"/></clipPath><clipPath id="b"><path class="a" d="M6.366,5.4a.16.16,0,0,0-.161.161V6.842a.161.161,0,0,0,.078.139l3.77,2.977a.157.157,0,0,0,.1.037h1.279l0,.005a.16.16,0,0,0,.16-.16V8.561a.161.161,0,0,0-.075-.14L7.752,5.44A.158.158,0,0,0,7.645,5.4Z"/></clipPath><linearGradient id="c" x1="-1.151" y1="1" x2="-0.965" y2="1" gradientUnits="objectBoundingBox"><stop offset="0" stop-color="#46b4e7"/><stop offset="0.064" stop-color="#46b4e7"/><stop offset="0.342" stop-color="#3bafe6"/><stop offset="0.823" stop-color="#1fa3e3"/><stop offset="1" stop-color="#139ee3"/></linearGradient><clipPath id="d"><path class="a" d="M3.956,5.4a.159.159,0,0,0-.108.042L.076,8.421A.162.162,0,0,0,0,8.561V9.84A.16.16,0,0,0,.16,10V9.995H1.44a.155.155,0,0,0,.1-.037L5.317,6.981a.161.161,0,0,0,.078-.139V5.559A.16.16,0,0,0,5.234,5.4Z"/></clipPath><linearGradient id="e" y1="1" x2="0.186" y2="1" gradientUnits="objectBoundingBox"><stop offset="0" stop-color="#86c958"/><stop offset="0.384" stop-color="#90cb5d"/><stop offset="0.817" stop-color="#a1d066"/><stop offset="1" stop-color="#a1d066"/></linearGradient><clipPath id="f"><path class="a" d="M.16,0A.16.16,0,0,0,0,.16V1.436a.161.161,0,0,0,.076.139L3.848,4.559a.159.159,0,0,0,.108.042H5.231a.161.161,0,0,0,.16-.161V3.161a.161.161,0,0,0-.078-.14L1.543.038A.162.162,0,0,0,1.44,0Z"/></clipPath><linearGradient id="g" y1="2.173" x2="0.186" y2="2.173" gradientUnits="objectBoundingBox"><stop offset="0" stop-color="#eb8811"/><stop offset="0.438" stop-color="#eb920b"/><stop offset="0.817" stop-color="#eba005"/><stop offset="1" stop-color="#eba005"/></linearGradient><clipPath id="h"><path class="a" d="M10.156,0a.164.164,0,0,0-.1.038L6.283,3.021a.164.164,0,0,0-.078.14V4.44a.161.161,0,0,0,.161.161H7.645a.158.158,0,0,0,.107-.042l3.77-2.981a.161.161,0,0,0,.075-.14V.16a.16.16,0,0,0-.16-.16Z"/></clipPath><linearGradient id="i" x1="-1.151" y1="2.173" x2="-0.965" y2="2.173" gradientUnits="objectBoundingBox"><stop offset="0" stop-color="#e45c0e"/><stop offset="0.214" stop-color="#e45c0e"/><stop offset="0.445" stop-color="#e25110"/><stop offset="0.849" stop-color="#df3417"/><stop offset="0.996" stop-color="#de281a"/><stop offset="1" stop-color="#de281a"/></linearGradient></defs><g transform="translate(75 3)"><rect class="a" width="120" height="16" transform="translate(-75 -3)"/><g transform="translate(-75)"><g class="b"><path class="c" d="M22.791,3.788h1.6a.2.2,0,0,1,.2.2V9.6a.2.2,0,0,1-.047.121.2.2,0,0,1-.139.066H18.151a4.8,4.8,0,0,1,0-9.6h6.241a.2.2,0,0,1,.2.2V2a.2.2,0,0,1-.2.2h-6.2a2.8,2.8,0,1,0,0,5.6h4.4V5.788h-3.2a.2.2,0,0,1-.2-.2v-1.6a.2.2,0,0,1,.2-.2ZM26.79.2h1.6a.2.2,0,0,1,.2.2V9.6a.2.2,0,0,1-.2.2h-1.6a.2.2,0,0,1-.2-.2V.4a.2.2,0,0,1,.2-.2m4,0h1.6a.225.225,0,0,1,.172.094L36.079,5,39.606.294a.22.22,0,0,1,.109-.081A.179.179,0,0,1,39.783.2h1.6a.2.2,0,0,1,.2.2V9.6a.2.2,0,0,1-.2.2h-1.6a.2.2,0,0,1-.2-.2V3.389L36.3,7.69a.279.279,0,0,1-.39.06.289.289,0,0,1-.061-.06l-3.264-4.3V9.6a.2.2,0,0,1-.194.2h-1.6a.2.2,0,0,1-.2-.2V.4a.2.2,0,0,1,.2-.2M45.378.2H43.783a.2.2,0,0,0-.2.2V9.6a.2.2,0,0,0,.2.2h1.595a.2.2,0,0,0,.2-.2V.4a.2.2,0,0,0-.2-.2"/></g><g class="d"><rect class="e" width="5.393" height="4.602" transform="translate(6.205 5.398)"/></g><g class="f"><rect class="g" width="5.396" height="4.602" transform="translate(-0.001 5.398)"/></g><g class="h"><rect class="i" width="5.393" height="4.601" transform="translate(-0.001)"/></g><g class="j"><rect class="k" width="5.393" height="4.601" transform="translate(6.205 0)"/></g></g></g></svg>