<svg xmlns="http://www.w3.org/2000/svg" xmlns:xlink="http://www.w3.org/1999/xlink" width="16" height="16" viewBox="0 0 16 16">
  <defs>
    <style>
      .cls-1 {
        fill: #fff;
      }

      .cls-2 {
        clip-path: url(#clip-path);
      }
    </style>
    <clipPath id="clip-path">
      <rect id="矩形_847" data-name="矩形 847" class="cls-1" width="16" height="16"/>
    </clipPath>
  </defs>
  <g id="违规内联" transform="translate(0 0)">
    <g id="组_885" data-name="组 885" class="cls-2" transform="translate(0 0)">
      <path id="路径_3264" data-name="路径 3264" class="cls-1" d="M14,0H2A2,2,0,0,0,0,2v12a2,2,0,0,0,2,2H5v-1H2a1,1,0,0,1-1-1V2A1,1,0,0,1,2,1H14a1,1,0,0,1,1,1V12h1V2a2,2,0,0,0-2-2" transform="translate(0 0)"/>
      <path id="路径_3265" data-name="路径 3265" class="cls-1" d="M12.232,9.005h1.214A3.973,3.973,0,0,0,8,3.565a3.955,3.955,0,0,0-2-.554A4,4,0,1,0,6,11a3.955,3.955,0,0,0,2-.554,4.124,4.124,0,0,0,.931.394L6.482,14.754A.813.813,0,0,0,7.172,16l7.968,0a.814.814,0,0,0,.691-1.245ZM6,10a3,3,0,1,1,1.129-5.77,3.971,3.971,0,0,0,0,5.546A2.99,2.99,0,0,1,6,10m1-3A2.98,2.98,0,0,1,8,4.789,2.959,2.959,0,0,1,8,9.225,2.98,2.98,0,0,1,7,7.007M8.872,9.78c.048-.049.083-.109.128-.16V9.005h.443a3.927,3.927,0,0,0,.557-2A3.975,3.975,0,0,0,8.872,4.234,2.985,2.985,0,0,1,12.227,9l-.38-.606a.814.814,0,0,0-1.381,0L9,10.73V9.819C8.959,9.8,8.913,9.8,8.872,9.78M7.507,15l3.649-5.829L14.805,15Z" transform="translate(0 -0.003)"/>
      <path id="路径_3266" data-name="路径 3266" class="cls-1" d="M10.521,11.512v1a.5.5,0,0,0,1,0v-1a.5.5,0,0,0-1,0" transform="translate(0 -0.011)"/>
      <path id="路径_3267" data-name="路径 3267" class="cls-1" d="M11.021,14.012a.5.5,0,1,0,.5.5.5.5,0,0,0-.5-.5" transform="translate(0 -0.014)"/>
    </g>
  </g>
</svg>
