<svg id="导出报告" xmlns="http://www.w3.org/2000/svg" xmlns:xlink="http://www.w3.org/1999/xlink" width="15" height="16" viewBox="0 0 15 16">
  <defs>
    <style>
      .cls-1 {
        fill: #fff;
      }

      .cls-2 {
        clip-path: url(#clip-path);
      }
    </style>
    <clipPath id="clip-path">
      <rect id="矩形_1025" data-name="矩形 1025" class="cls-1" width="15" height="16"/>
    </clipPath>
  </defs>
  <g id="组_1047" data-name="组 1047" class="cls-2">
    <path id="路径_3481" data-name="路径 3481" class="cls-1" d="M15,4.187a.5.5,0,0,0-.158-.364l-4-3.688A.5.5,0,0,0,10.5,0h-8A2.442,2.442,0,0,0,0,2.375v11.25A2.442,2.442,0,0,0,2.5,16h10A2.443,2.443,0,0,0,15,13.625c0-.009-.005-.016-.005-.025H15Zm-1,9.438A1.443,1.443,0,0,1,12.5,15H2.5A1.443,1.443,0,0,1,1,13.625V2.375A1.443,1.443,0,0,1,2.5,1h7.8L14,4.4v9.2h.005c0,.009-.005.016-.005.025"/>
    <path id="路径_3482" data-name="路径 3482" class="cls-1" d="M10,5h3L10,2Z"/>
    <rect id="矩形_1023" data-name="矩形 1023" class="cls-1" width="7" height="1" transform="translate(4 8)"/>
    <rect id="矩形_1024" data-name="矩形 1024" class="cls-1" width="7" height="1" transform="translate(4 11.012)"/>
  </g>
</svg>
