<svg id="系统漏洞" xmlns="http://www.w3.org/2000/svg" xmlns:xlink="http://www.w3.org/1999/xlink" width="16" height="16" viewBox="0 0 16 16">
  <defs>
    <style>
      .cls-1 {
        fill: #fff;
      }

      .cls-2 {
        clip-path: url(#clip-path);
      }
    </style>
    <clipPath id="clip-path">
      <rect id="矩形_842" data-name="矩形 842" class="cls-1" width="16" height="16"/>
    </clipPath>
  </defs>
  <g id="组_877" data-name="组 877" class="cls-2">
    <path id="路径_3250" data-name="路径 3250" class="cls-1" d="M8,2a6,6,0,1,0,6,6A6,6,0,0,0,8,2M8,13a5,5,0,1,1,5-5,5.006,5.006,0,0,1-5,5" transform="translate(0 0)"/>
    <path id="路径_3251" data-name="路径 3251" class="cls-1" d="M8,5a2.988,2.988,0,0,0-1.974,5.242A1.556,1.556,0,0,0,6,10.5a1.5,1.5,0,0,0,2.962.328A2.992,2.992,0,0,0,8,5m-.5,6a.491.491,0,0,1-.33-.132,2.914,2.914,0,0,0,.5.1A.492.492,0,0,1,7.5,11M8.828,9.818A1.483,1.483,0,0,0,6.54,9.359a2,2,0,1,1,2.288.459" transform="translate(0 0)"/>
    <path id="路径_3252" data-name="路径 3252" class="cls-1" d="M14,0H2A2,2,0,0,0,0,2V14a2,2,0,0,0,2,2H14a2,2,0,0,0,2-2V2a2,2,0,0,0-2-2m.979,14.012a1,1,0,0,1-1,1h-12a1,1,0,0,1-1-1v-12a1,1,0,0,1,1-1h12a1,1,0,0,1,1,1Z"/>
  </g>
</svg>
