<svg xmlns="http://www.w3.org/2000/svg" xmlns:xlink="http://www.w3.org/1999/xlink" width="16" height="16" viewBox="0 0 16 16">
  <defs>
    <style>
      .cls-1 {
        fill: #fff;
      }

      .cls-2 {
        clip-path: url(#clip-path);
      }
    </style>
    <clipPath id="clip-path">
      <rect id="矩形_843" data-name="矩形 843" class="cls-1" width="16" height="16"/>
    </clipPath>
  </defs>
  <g id="弱口令" transform="translate(0 0)">
    <g id="组_879" data-name="组 879" class="cls-2" transform="translate(0 0)">
      <path id="路径_3253" data-name="路径 3253" class="cls-1" d="M14,0H2A2,2,0,0,0,0,2V14a2,2,0,0,0,2,2H14a2,2,0,0,0,2-2V2a2,2,0,0,0-2-2m1,14a1,1,0,0,1-1,1H2a1,1,0,0,1-1-1V5H15ZM15,4H1V2A1,1,0,0,1,2,1H14a1,1,0,0,1,1,1Z" transform="translate(0 0)"/>
      <path id="路径_3254" data-name="路径 3254" class="cls-1" d="M1.857,11.213l.691.5a9.391,9.391,0,0,0,.762-1.259,14.48,14.48,0,0,0,.8,1.259l.7-.5a9.863,9.863,0,0,0-1.008-1.106,7.249,7.249,0,0,0,1.459-.329L5,8.947a10.146,10.146,0,0,0-1.383.563q.117-.873.135-1.452H2.9q.006.4.117,1.458a9.02,9.02,0,0,0-1.353-.569l-.27.832q.679.183,1.436.329a11.856,11.856,0,0,0-.973,1.106" transform="translate(0 -0.004)"/>
      <path id="路径_3255" data-name="路径 3255" class="cls-1" d="M6.527,11.213l.691.5a9.391,9.391,0,0,0,.762-1.259,14.48,14.48,0,0,0,.8,1.259l.7-.5a9.863,9.863,0,0,0-1.008-1.106,7.249,7.249,0,0,0,1.459-.329l-.269-.832a10.146,10.146,0,0,0-1.383.563q.117-.873.135-1.452H7.57q.006.4.117,1.458a9.02,9.02,0,0,0-1.353-.569l-.27.832q.68.183,1.436.329a11.856,11.856,0,0,0-.973,1.106" transform="translate(0 -0.004)"/>
      <path id="路径_3256" data-name="路径 3256" class="cls-1" d="M11.2,11.213l.691.5a9.391,9.391,0,0,0,.762-1.259,14.48,14.48,0,0,0,.8,1.259l.7-.5a9.863,9.863,0,0,0-1.008-1.106,7.249,7.249,0,0,0,1.459-.329l-.269-.832a10.146,10.146,0,0,0-1.383.563q.117-.873.135-1.452h-.85q.006.4.117,1.458A9.02,9.02,0,0,0,11,8.947l-.27.832q.68.183,1.436.329a11.856,11.856,0,0,0-.973,1.106" transform="translate(0 -0.004)"/>
    </g>
  </g>
</svg>
