<svg id="管理员账号" xmlns="http://www.w3.org/2000/svg" xmlns:xlink="http://www.w3.org/1999/xlink" width="26" height="26" viewBox="0 0 26 26">
  <defs>
    <style>
      .cls-1 {
        fill: #fff;
      }

      .cls-2 {
        clip-path: url(#clip-path);
      }
    </style>
    <clipPath id="clip-path">
      <rect id="矩形_1153" data-name="矩形 1153" class="cls-1" width="26" height="26"/>
    </clipPath>
  </defs>
  <g id="组_1179" data-name="组 1179" class="cls-2">
    <path id="路径_3632" data-name="路径 3632" class="cls-1" d="M22.75,0H3.25A3.249,3.249,0,0,0,0,3.25v19.5A3.249,3.249,0,0,0,3.25,26h19.5A3.249,3.249,0,0,0,26,22.75V3.25A3.249,3.249,0,0,0,22.75,0m1.625,22.75a1.628,1.628,0,0,1-1.625,1.625H3.25A1.628,1.628,0,0,1,1.625,22.75V3.25A1.628,1.628,0,0,1,3.25,1.625h19.5A1.628,1.628,0,0,1,24.375,3.25Z"/>
    <path id="路径_3633" data-name="路径 3633" class="cls-1" d="M14.092,12.355a5.688,5.688,0,1,0-4.682,0A9.748,9.748,0,0,0,2,21.81H21.5a9.747,9.747,0,0,0-7.408-9.456m-6.4-5.169a4.062,4.062,0,1,1,4.061,4.063A4.066,4.066,0,0,1,7.689,7.185m-3.9,13a8.125,8.125,0,0,1,15.922,0Z" transform="translate(1.25 0.936)"/>
  </g>
</svg>
