<svg xmlns="http://www.w3.org/2000/svg" xmlns:xlink="http://www.w3.org/1999/xlink" width="26" height="26.008" viewBox="0 0 26 26.008">
  <defs>
    <style>
      .cls-1 {
        fill: #fff;
      }

      .cls-2 {
        clip-path: url(#clip-path);
      }
    </style>
    <clipPath id="clip-path">
      <rect id="矩形_1133" data-name="矩形 1133" class="cls-1" width="26" height="26.008"/>
    </clipPath>
  </defs>
  <g id="告警事件" transform="translate(0 0)">
    <g id="组_1174" data-name="组 1174" class="cls-2" transform="translate(0 0)">
      <path id="路径_3622" data-name="路径 3622" class="cls-1" d="M22.75,0H3.25A3.249,3.249,0,0,0,0,3.25v19.5A3.249,3.249,0,0,0,3.25,26H8.1c.02,0,.036.008.055.008L22.75,26A3.25,3.25,0,0,0,26,22.75V3.25A3.249,3.249,0,0,0,22.75,0M1.625,22.75V3.25A1.628,1.628,0,0,1,3.25,1.625h19.5A1.628,1.628,0,0,1,24.375,3.25V21.31L17.646,10.545a1.653,1.653,0,0,0-2.8,0L6.753,23.478a1.633,1.633,0,0,0-.249.9H3.25A1.628,1.628,0,0,1,1.625,22.75M22.75,24.375H19.51L8.132,24.339l8.1-12.945.016,0,.024.013,7.7,12.394a1.606,1.606,0,0,1-1.215.575" transform="translate(0 0.001)"/>
      <rect id="矩形_1130" data-name="矩形 1130" class="cls-1" width="2.03" height="4.061" rx="0.5" transform="translate(14.955 15.858)"/>
      <path id="路径_3623" data-name="路径 3623" class="cls-1" d="M10.42,13.506h-.4a.813.813,0,0,0-.812.813v.4a.813.813,0,0,0,.813.813h.4a.813.813,0,0,0,.813-.812v-.4a.813.813,0,0,0-.812-.812" transform="translate(5.752 8.442)"/>
      <rect id="矩形_1131" data-name="矩形 1131" class="cls-1" width="16.25" height="1.625" transform="translate(4.875 4.875)"/>
      <rect id="矩形_1132" data-name="矩形 1132" class="cls-1" width="6.5" height="1.625" transform="translate(4.875 9.75)"/>
    </g>
  </g>
</svg>
