<svg id="告警配置" xmlns="http://www.w3.org/2000/svg" xmlns:xlink="http://www.w3.org/1999/xlink" width="26" height="26" viewBox="0 0 26 26">
  <defs>
    <style>
      .cls-1 {
        fill: #fff;
      }

      .cls-2 {
        clip-path: url(#clip-path);
      }
    </style>
    <clipPath id="clip-path">
      <rect id="矩形_1129" data-name="矩形 1129" class="cls-1" width="26" height="26"/>
    </clipPath>
  </defs>
  <g id="组_1173" data-name="组 1173" class="cls-2">
    <path id="路径_3618" data-name="路径 3618" class="cls-1" d="M8.063,13H4.813a.813.813,0,0,0,0,1.625h3.25a.813.813,0,0,0,0-1.625" transform="translate(2.5 8.124)"/>
    <path id="路径_3619" data-name="路径 3619" class="cls-1" d="M21.156,11.757h-1.11a6.7,6.7,0,0,0-1-1.8L19.6,8.942a1.173,1.173,0,0,0-.4-1.562l-2.03-1.227a1.051,1.051,0,0,0-.83-.114,1.1,1.1,0,0,0-.665.533l-.548.991a5.205,5.205,0,0,0-2.012,0l-.548-.991a1.1,1.1,0,0,0-.665-.533,1.046,1.046,0,0,0-.829.114L9.047,7.381a1.126,1.126,0,0,0-.509.694,1.176,1.176,0,0,0,.109.868l.559,1.011a6.742,6.742,0,0,0-1,1.8H7.094A1.121,1.121,0,0,0,6,12.9v2.451a1.12,1.12,0,0,0,1.094,1.142H8.2a6.7,6.7,0,0,0,1,1.8l-.559,1.011a1.177,1.177,0,0,0-.109.868,1.123,1.123,0,0,0,.509.694L11.078,22.1a1.069,1.069,0,0,0,1.493-.418l.548-.993a5.052,5.052,0,0,0,2.012,0l.548.993a1.087,1.087,0,0,0,.949.57,1.053,1.053,0,0,0,.546-.153L19.2,20.87a1.173,1.173,0,0,0,.4-1.562L19.044,18.3a6.7,6.7,0,0,0,1-1.8h1.11a1.12,1.12,0,0,0,1.094-1.142V12.9a1.121,1.121,0,0,0-1.094-1.144m.078,3.518a.077.077,0,0,1-.078.076H19.314L19.2,15.7a5.236,5.236,0,0,1-1.154,1.948l-.247.268.923,1.566a.078.078,0,0,1-.029.106l-2.03,1.149a.093.093,0,0,1-.107-.028l-.917-1.557-.364.08a4.687,4.687,0,0,1-2.3,0l-.364-.08-.917,1.557a.082.082,0,0,1-.107.028l-2.03-1.149a.087.087,0,0,1-.029-.106l.923-1.566-.247-.268A5.258,5.258,0,0,1,9.049,15.7l-.112-.348H7.094a.077.077,0,0,1-.078-.076v-2.3a.078.078,0,0,1,.078-.078H8.936l.112-.346A5.232,5.232,0,0,1,10.2,10.6l.247-.27L9.526,8.768a.086.086,0,0,1,.029-.1l2.03-1.149a.091.091,0,0,1,.107.028L12.609,9.1l.364-.081a4.726,4.726,0,0,1,2.3,0l.364.081.917-1.557a.092.092,0,0,1,.107-.028l2.03,1.149a.075.075,0,0,1,.029.1L17.8,10.335l.247.27A5.219,5.219,0,0,1,19.2,12.553l.112.346h1.843a.078.078,0,0,1,.078.078Z" transform="translate(3.75 3.751)"/>
    <path id="路径_3620" data-name="路径 3620" class="cls-1" d="M12.368,8.813a3.555,3.555,0,1,0,3.556,3.556,3.559,3.559,0,0,0-3.556-3.556m0,5.991A2.437,2.437,0,1,1,14.8,12.368,2.439,2.439,0,0,1,12.368,14.8" transform="translate(5.508 5.508)"/>
    <path id="路径_3621" data-name="路径 3621" class="cls-1" d="M8.125,19.5V17.873H4.875V8.125a6.5,6.5,0,0,1,13,0v0H19.5v0a8.125,8.125,0,0,0-16.25,0v9.748H.813a.813.813,0,0,0,0,1.625H8.125Z"/>
  </g>
</svg>
