<svg id="接口权限" xmlns="http://www.w3.org/2000/svg" xmlns:xlink="http://www.w3.org/1999/xlink" width="26" height="26" viewBox="0 0 26 26">
  <defs>
    <style>
      .cls-1 {
        fill: #fff;
      }

      .cls-2 {
        clip-path: url(#clip-path);
      }
    </style>
    <clipPath id="clip-path">
      <rect id="矩形_1162" data-name="矩形 1162" class="cls-1" width="26" height="26"/>
    </clipPath>
  </defs>
  <g id="组_1187" data-name="组 1187" class="cls-2">
    <path id="路径_3637" data-name="路径 3637" class="cls-1" d="M22.75,0H3.25A3.25,3.25,0,0,0,0,3.25v19.5A3.25,3.25,0,0,0,3.25,26h19.5A3.249,3.249,0,0,0,26,22.75V3.25A3.249,3.249,0,0,0,22.75,0m1.625,22.75a1.628,1.628,0,0,1-1.625,1.625H3.25A1.628,1.628,0,0,1,1.625,22.75V3.25A1.628,1.628,0,0,1,3.25,1.625h19.5A1.628,1.628,0,0,1,24.375,3.25Z"/>
    <path id="路径_3638" data-name="路径 3638" class="cls-1" d="M18.229,3h-13V7.877H1.979V19.252h19.5V7.877h-3.25Zm1.625,6.5v8.125H3.6V9.5h3.25V4.627H16.6V9.5h3.25Z" transform="translate(1.237 1.876)"/>
    <rect id="矩形_1158" data-name="矩形 1158" class="cls-1" width="1.625" height="4.875" transform="translate(7.278 13.003)"/>
    <rect id="矩形_1159" data-name="矩形 1159" class="cls-1" width="1.625" height="4.875" transform="translate(10.569 13.003)"/>
    <rect id="矩形_1160" data-name="矩形 1160" class="cls-1" width="1.625" height="4.875" transform="translate(13.778 13.003)"/>
    <rect id="矩形_1161" data-name="矩形 1161" class="cls-1" width="1.625" height="4.875" transform="translate(17.028 13.003)"/>
    <path id="路径_3639" data-name="路径 3639" class="cls-1" d="M10.51,4.51,8.355,7.383,7.26,6.57a.458.458,0,0,0-.676.149.579.579,0,0,0,.135.751L8.543,8.823,11.259,5.2A.588.588,0,0,0,11.2,4.44a.455.455,0,0,0-.686.07" transform="translate(4.063 2.697)"/>
  </g>
</svg>
