<svg id="默认图标" xmlns="http://www.w3.org/2000/svg" xmlns:xlink="http://www.w3.org/1999/xlink" width="16" height="16" viewBox="0 0 16 16">
  <defs>
    <style>
      .cls-1 {
        fill: #fff;
      }

      .cls-2 {
        clip-path: url(#clip-path);
      }
    </style>
    <clipPath id="clip-path">
      <rect id="矩形_1345" data-name="矩形 1345" class="cls-1" width="16" height="16"/>
    </clipPath>
  </defs>
  <g id="组_1487" data-name="组 1487" class="cls-2">
    <path id="路径_4075" data-name="路径 4075" class="cls-1" d="M6.758,2.993H4.284A1.262,1.262,0,0,0,3.021,4.255V6.73A1.263,1.263,0,0,0,4.284,7.993H6.758A1.263,1.263,0,0,0,8.021,6.73V4.255A1.262,1.262,0,0,0,6.758,2.993M7.021,6.73a.263.263,0,0,1-.263.263H4.284a.263.263,0,0,1-.263-.263V4.255a.262.262,0,0,1,.263-.262H6.758a.262.262,0,0,1,.263.262Z"/>
    <path id="路径_4076" data-name="路径 4076" class="cls-1" d="M6.737,9H4.263A1.262,1.262,0,0,0,3,10.263v1.475A1.263,1.263,0,0,0,4.263,13H6.737A1.263,1.263,0,0,0,8,11.738V10.263A1.262,1.262,0,0,0,6.737,9M7,11.738A.263.263,0,0,1,6.737,12H4.263A.263.263,0,0,1,4,11.738V10.263A.262.262,0,0,1,4.263,10H6.737A.262.262,0,0,1,7,10.263Z"/>
    <path id="路径_4077" data-name="路径 4077" class="cls-1" d="M12.011,9h-1.98a1.01,1.01,0,0,0-1.01,1.01v1.98A1.01,1.01,0,0,0,10.031,13h1.98a1.01,1.01,0,0,0,1.01-1.01V10.01A1.01,1.01,0,0,0,12.011,9m.21,2.99a.21.21,0,0,1-.21.21h-1.98a.21.21,0,0,1-.21-.21V10.01a.21.21,0,0,1,.21-.21h1.98a.21.21,0,0,1,.21.21Z"/>
    <path id="路径_4078" data-name="路径 4078" class="cls-1" d="M14,0H2A2,2,0,0,0,0,2V14a2,2,0,0,0,2,2H14a2,2,0,0,0,2-2V2a2,2,0,0,0-2-2m1,14a1,1,0,0,1-1,1H2a1,1,0,0,1-1-1V2A1,1,0,0,1,2,1H14a1,1,0,0,1,1,1Z"/>
    <rect id="矩形_1343" data-name="矩形 1343" class="cls-1" width="4" height="1" transform="translate(9.021 3.996)"/>
    <rect id="矩形_1344" data-name="矩形 1344" class="cls-1" width="4" height="1" transform="translate(9.021 6)"/>
  </g>
</svg>
