<svg id="设备日志" xmlns="http://www.w3.org/2000/svg" xmlns:xlink="http://www.w3.org/1999/xlink" width="26" height="26" viewBox="0 0 26 26">
  <defs>
    <style>
      .cls-1 {
        fill: #fff;
      }

      .cls-2 {
        clip-path: url(#clip-path);
      }
    </style>
    <clipPath id="clip-path">
      <rect id="矩形_1147" data-name="矩形 1147" class="cls-1" width="26" height="26"/>
    </clipPath>
  </defs>
  <g id="组_1177" data-name="组 1177" class="cls-2">
    <path id="路径_3627" data-name="路径 3627" class="cls-1" d="M25.965,17.883V3.248A3.248,3.248,0,0,0,22.719,0H3.246A3.246,3.246,0,0,0,0,3.248v19.5A3.246,3.246,0,0,0,3.246,26H22.719a3.248,3.248,0,0,0,3.247-3.248V19.508H26V17.883Zm-1.622,4.868a1.628,1.628,0,0,1-1.625,1.625H3.246a1.627,1.627,0,0,1-1.625-1.625V19.508H24.344Zm0-4.868H1.621V3.248A1.625,1.625,0,0,1,3.246,1.625H22.719a1.626,1.626,0,0,1,1.625,1.623Z" transform="translate(0.001)"/>
    <rect id="矩形_1139" data-name="矩形 1139" class="cls-1" width="8.114" height="1.625" transform="translate(4.903 21.132)"/>
    <rect id="矩形_1140" data-name="矩形 1140" class="cls-1" width="3.245" height="1.625" transform="translate(17.886 21.132)"/>
    <rect id="矩形_1141" data-name="矩形 1141" class="cls-1" width="11.375" height="1.625" transform="translate(9.75 3.25)"/>
    <rect id="矩形_1142" data-name="矩形 1142" class="cls-1" width="11.375" height="1.625" transform="translate(9.75 8.125)"/>
    <rect id="矩形_1143" data-name="矩形 1143" class="cls-1" width="11.375" height="1.625" transform="translate(9.75 13)"/>
    <rect id="矩形_1144" data-name="矩形 1144" class="cls-1" width="3.25" height="1.625" transform="translate(4.875 3.25)"/>
    <rect id="矩形_1145" data-name="矩形 1145" class="cls-1" width="3.25" height="1.625" transform="translate(4.875 8.125)"/>
    <rect id="矩形_1146" data-name="矩形 1146" class="cls-1" width="3.25" height="1.625" transform="translate(4.875 13)"/>
  </g>
</svg>
