<svg xmlns="http://www.w3.org/2000/svg" xmlns:xlink="http://www.w3.org/1999/xlink" width="26" height="26.002" viewBox="0 0 26 26.002">
  <defs>
    <style>
      .cls-1 {
        fill: #fff;
      }

      .cls-2 {
        clip-path: url(#clip-path);
      }
    </style>
    <clipPath id="clip-path">
      <rect id="矩形_1163" data-name="矩形 1163" class="cls-1" width="26" height="26.002"/>
    </clipPath>
  </defs>
  <g id="企业定制" transform="translate(0 0)">
    <g id="组_1188" data-name="组 1188" class="cls-2" transform="translate(0 0)">
      <path id="路径_3640" data-name="路径 3640" class="cls-1" d="M24.043,11.377H19.832a1.9,1.9,0,0,0-.332.067V3.25A3.249,3.249,0,0,0,16.25,0h-13A3.249,3.249,0,0,0,0,3.25v19.5A3.249,3.249,0,0,0,3.25,26H17.875v0h6.168A1.956,1.956,0,0,0,26,24.045V13.335a1.957,1.957,0,0,0-1.957-1.958m-14.293,13V14.627H8.125v9.748H3.25A1.628,1.628,0,0,1,1.625,22.75V3.25A1.628,1.628,0,0,1,3.25,1.625h13A1.628,1.628,0,0,1,17.875,3.25V24.375Zm14.625-.33a.332.332,0,0,1-.332.332H19.5V13.335A.333.333,0,0,1,19.832,13h4.212a.333.333,0,0,1,.332.333Z" transform="translate(0 0)"/>
    </g>
  </g>
</svg>
