<svg id="系统事件" xmlns="http://www.w3.org/2000/svg" xmlns:xlink="http://www.w3.org/1999/xlink" width="26" height="26" viewBox="0 0 26 26">
  <defs>
    <style>
      .cls-1 {
        fill: #fff;
      }

      .cls-2 {
        clip-path: url(#clip-path);
      }
    </style>
    <clipPath id="clip-path">
      <rect id="矩形_1138" data-name="矩形 1138" class="cls-1" width="26" height="26"/>
    </clipPath>
  </defs>
  <g id="组_1176" data-name="组 1176" class="cls-2">
    <path id="路径_3626" data-name="路径 3626" class="cls-1" d="M22.141,1.623H19.5A1.625,1.625,0,0,0,17.875,0H8.125A1.625,1.625,0,0,0,6.5,1.623H3.859A3.969,3.969,0,0,0,0,5.686V21.938A3.968,3.968,0,0,0,3.859,26H22.141A3.968,3.968,0,0,0,26,21.938V5.686a3.969,3.969,0,0,0-3.859-4.062m-14.016,0h9.75V3.248H8.125Zm16.25,20.313a2.346,2.346,0,0,1-2.234,2.438H3.859a2.346,2.346,0,0,1-2.234-2.437V5.686A2.346,2.346,0,0,1,3.859,3.248H6.5A1.626,1.626,0,0,0,8.125,4.873h9.75A1.626,1.626,0,0,0,19.5,3.248h2.641a2.346,2.346,0,0,1,2.234,2.437Z"/>
    <rect id="矩形_1135" data-name="矩形 1135" class="cls-1" width="13" height="1.625" transform="translate(6.5 9.748)"/>
    <rect id="矩形_1136" data-name="矩形 1136" class="cls-1" width="13" height="1.625" transform="translate(6.5 14.531)"/>
    <rect id="矩形_1137" data-name="矩形 1137" class="cls-1" width="13" height="1.625" transform="translate(6.5 19.498)"/>
  </g>
</svg>
