<svg id="配置维护" xmlns="http://www.w3.org/2000/svg" xmlns:xlink="http://www.w3.org/1999/xlink" width="26" height="26" viewBox="0 0 26 26">
  <defs>
    <style>
      .cls-1 {
        fill: #fff;
      }

      .cls-2 {
        clip-path: url(#clip-path);
      }
    </style>
    <clipPath id="clip-path">
      <rect id="矩形_1177" data-name="矩形 1177" class="cls-1" width="26" height="26"/>
    </clipPath>
  </defs>
  <g id="组_1192" data-name="组 1192" class="cls-2">
    <path id="路径_3650" data-name="路径 3650" class="cls-1" d="M20.187,8.907H18.854a8.05,8.05,0,0,0-1.2-2.164l.669-1.212a1.41,1.41,0,0,0-.479-1.875L15.406,2.185a1.255,1.255,0,0,0-1-.137,1.313,1.313,0,0,0-.8.639l-.658,1.191a6.185,6.185,0,0,0-2.413,0L9.886,2.687a1.311,1.311,0,0,0-.8-.639,1.256,1.256,0,0,0-1,.137L5.656,3.655a1.357,1.357,0,0,0-.611.834,1.424,1.424,0,0,0,.132,1.042l.669,1.212a8.139,8.139,0,0,0-1.2,2.164H3.313A1.346,1.346,0,0,0,2,10.279v2.943a1.346,1.346,0,0,0,1.313,1.372H4.646a8.041,8.041,0,0,0,1.2,2.163l-.669,1.212a1.428,1.428,0,0,0-.132,1.043,1.361,1.361,0,0,0,.613.832l2.434,1.471a1.285,1.285,0,0,0,1.794-.5l.656-1.191a6.093,6.093,0,0,0,2.413,0l.658,1.191a1.3,1.3,0,0,0,1.137.686,1.26,1.26,0,0,0,.655-.185l2.436-1.471a1.409,1.409,0,0,0,.479-1.875l-.669-1.212a8.091,8.091,0,0,0,1.2-2.163h1.333A1.344,1.344,0,0,0,21.5,13.222V10.279a1.344,1.344,0,0,0-1.311-1.372m.093,4.222a.092.092,0,0,1-.093.091H17.975l-.135.418a6.284,6.284,0,0,1-1.383,2.338l-.3.322,1.107,1.88a.091.091,0,0,1-.034.125L14.8,19.683a.109.109,0,0,1-.128-.034l-1.1-1.867-.436.1a5.612,5.612,0,0,1-2.766,0l-.437-.1-1.1,1.867a.1.1,0,0,1-.128.034L6.267,18.3a.1.1,0,0,1-.034-.125L7.34,16.3l-.3-.322a6.314,6.314,0,0,1-1.385-2.338l-.135-.418H3.313a.093.093,0,0,1-.094-.091V10.371a.094.094,0,0,1,.094-.093h2.21l.135-.416A6.31,6.31,0,0,1,7.042,7.524l.3-.323L6.232,5.321A.1.1,0,0,1,6.267,5.2L8.7,3.818a.108.108,0,0,1,.128.034l1.1,1.866.437-.094a5.65,5.65,0,0,1,2.766,0l.436.1,1.1-1.867a.108.108,0,0,1,.128-.034L17.231,5.2a.09.09,0,0,1,.036.125L16.16,7.2l.3.323A6.28,6.28,0,0,1,17.84,9.863l.135.416h2.212a.094.094,0,0,1,.093.093Z" transform="translate(1.25 1.251)"/>
    <path id="路径_3651" data-name="路径 3651" class="cls-1" d="M9.641,5.375a4.266,4.266,0,1,0,4.266,4.266A4.271,4.271,0,0,0,9.641,5.375m0,7.189a2.923,2.923,0,1,1,2.923-2.923,2.927,2.927,0,0,1-2.923,2.923" transform="translate(3.359 3.359)"/>
    <path id="路径_3652" data-name="路径 3652" class="cls-1" d="M22.75,0H3.25A3.249,3.249,0,0,0,0,3.25v19.5A3.249,3.249,0,0,0,3.25,26h19.5A3.249,3.249,0,0,0,26,22.75V3.25A3.249,3.249,0,0,0,22.75,0m1.625,22.75a1.628,1.628,0,0,1-1.625,1.625H3.25A1.628,1.628,0,0,1,1.625,22.75V3.25A1.628,1.628,0,0,1,3.25,1.625h19.5A1.628,1.628,0,0,1,24.375,3.25Z"/>
  </g>
</svg>
