<svg id="数据维护" xmlns="http://www.w3.org/2000/svg" xmlns:xlink="http://www.w3.org/1999/xlink" width="26" height="26" viewBox="0 0 26 26">
  <defs>
    <style>
      .cls-1 {
        fill: #fff;
      }

      .cls-2 {
        clip-path: url(#clip-path);
      }
    </style>
    <clipPath id="clip-path">
      <rect id="矩形_1178" data-name="矩形 1178" class="cls-1" width="26" height="26"/>
    </clipPath>
  </defs>
  <g id="组_1193" data-name="组 1193" class="cls-2">
    <path id="路径_3653" data-name="路径 3653" class="cls-1" d="M21.4,17.234l-4.519-3.153a5.616,5.616,0,0,0,.494-2.288A5.7,5.7,0,0,0,11.689,6.1a5.616,5.616,0,0,0-1.742.3l-1.266.406L11.9,10.024a1.281,1.281,0,0,1,0,1.807,1.311,1.311,0,0,1-1.805,0L6.843,8.584,6.393,9.75a5.661,5.661,0,0,0,5.3,7.73,5.576,5.576,0,0,0,2.338-.517L17.3,21.335a2.9,2.9,0,1,0,4.1-4.1m-1.149,2.953a1.426,1.426,0,0,1-1.729.091l-4.059-5.442-.635.395a4.042,4.042,0,0,1-6.2-3.437c0-.042,0-.084,0-.127l1.315,1.313a2.971,2.971,0,0,0,4.1,0,2.905,2.905,0,0,0,0-4.1L11.9,7.735a4.04,4.04,0,0,1,3.232,6.177l-.4.656L20.3,18.428a1.276,1.276,0,0,1-.044,1.758" transform="translate(3.751 3.815)"/>
    <path id="路径_3654" data-name="路径 3654" class="cls-1" d="M1.623,21.125V18.881c1.8,1.269,4.883,2.01,8.128,2.194v-1.74c-5-.3-8.128-1.922-8.128-3.084V12.381c1.8,1.269,4.883,2.01,8.128,2.194v-1.74c-5-.3-8.128-1.922-8.128-3.084v-3.6C3.609,7.33,7.22,8.125,11.36,8.125c4.16,0,7.787-.8,9.766-2V13H22.75V4.063a.8.8,0,0,0-.078-.336C22.194,1.64,17.318,0,11.36,0,5.086,0,0,1.818,0,4.063V21.125C0,24.325,5.715,26,11.36,26a24.7,24.7,0,0,0,6.516-.824V23.359a21.639,21.639,0,0,1-6.516.912c-5.944,0-9.737-1.862-9.737-3.146m0-17.038c.213-.682,3.51-2.462,9.737-2.462S20.9,3.412,21.1,4.033c-.2.679-3.5,2.467-9.74,2.467S1.836,4.719,1.623,4.095Z"/>
  </g>
</svg>
