<svg id="准入事件" xmlns="http://www.w3.org/2000/svg" xmlns:xlink="http://www.w3.org/1999/xlink" width="26" height="26.007" viewBox="0 0 26 26.007">
  <defs>
    <style>
      .cls-1 {
        fill: #fff;
      }

      .cls-2 {
        clip-path: url(#clip-path);
      }
    </style>
    <clipPath id="clip-path">
      <rect id="矩形_1152" data-name="矩形 1152" class="cls-1" width="26" height="26.007"/>
    </clipPath>
  </defs>
  <g id="组_1178" data-name="组 1178" class="cls-2">
    <path id="路径_3630" data-name="路径 3630" class="cls-1" d="M3.633,21.943a.789.789,0,0,1,.762.813v.813a.79.79,0,0,0,.761.813H21.919a.791.791,0,0,0,.762-.813V2.438a.791.791,0,0,0-.762-.813H5.156a.79.79,0,0,0-.761.813v.813a.789.789,0,0,1-.762.813.789.789,0,0,1-.762-.813V2.438A2.369,2.369,0,0,1,5.156,0H21.919A2.369,2.369,0,0,1,24.2,2.438v21.13a2.369,2.369,0,0,1-2.285,2.438H5.156a2.369,2.369,0,0,1-2.285-2.438v-.813a.789.789,0,0,1,.762-.813" transform="translate(1.796)"/>
    <path id="路径_3631" data-name="路径 3631" class="cls-1" d="M.762,10.944H17.525a.706.706,0,0,0,.291-.063.715.715,0,0,0,.241-.171l.007,0,.007-.01a.821.821,0,0,0,.158-.255.849.849,0,0,0,.059-.31v0a.838.838,0,0,0-.059-.307.821.821,0,0,0-.158-.255l-.007-.01L14.83,6.108a.73.73,0,0,0-1.078,0,.851.851,0,0,0,0,1.149l1.933,2.061H.762a.814.814,0,0,0,0,1.625" transform="translate(0 3.672)"/>
  </g>
</svg>
