<svg id="网络设置" xmlns="http://www.w3.org/2000/svg" xmlns:xlink="http://www.w3.org/1999/xlink" width="26" height="26" viewBox="0 0 26 26">
  <defs>
    <style>
      .cls-1 {
        fill: #fff;
      }

      .cls-2 {
        clip-path: url(#clip-path);
      }

      .cls-3 {
        opacity: 0.97;
      }
    </style>
    <clipPath id="clip-path">
      <rect id="矩形_1156" data-name="矩形 1156" class="cls-1" width="26" height="26"/>
    </clipPath>
  </defs>
  <g id="组_1185" data-name="组 1185" class="cls-2">
    <g id="组_1184" data-name="组 1184">
      <g id="组_1183" data-name="组 1183" class="cls-2">
        <g id="组_1182" data-name="组 1182" class="cls-3">
          <g id="组_1181" data-name="组 1181">
            <g id="组_1180" data-name="组 1180" class="cls-2">
              <path id="路径_3634" data-name="路径 3634" class="cls-1" d="M25.958,12.188v-.013H24.331l0,.013H19.479c-.128-4.141-1.217-7.758-2.836-9.953a11.383,11.383,0,0,1,7.209,7.5h1.718A12.983,12.983,0,0,0,.041,12.188H0v1.625H6.52c.128,4.141,1.219,7.758,2.836,9.953A11.386,11.386,0,0,1,2.143,16.25H.427a12.982,12.982,0,0,0,25.53-2.437H26V12.188ZM13,1.625c2.2,0,4.651,4.465,4.854,10.563H8.144c.2-6.1,2.65-10.562,4.856-10.562M1.666,12.188a11.385,11.385,0,0,1,7.69-9.953C7.738,4.43,6.648,8.047,6.52,12.188ZM13,24.375c-2.205,0-4.652-4.467-4.856-10.562h9.709c-.2,6.1-2.65,10.563-4.854,10.563m3.643-.609c1.618-2.2,2.707-5.813,2.836-9.953h4.854a11.385,11.385,0,0,1-7.69,9.953"/>
            </g>
          </g>
        </g>
      </g>
    </g>
  </g>
</svg>
