<svg id="上报配置" xmlns="http://www.w3.org/2000/svg" xmlns:xlink="http://www.w3.org/1999/xlink" width="26" height="26" viewBox="0 0 26 26">
  <defs>
    <style>
      .cls-1 {
        fill: #fff;
      }

      .cls-2 {
        clip-path: url(#clip-path);
      }
    </style>
    <clipPath id="clip-path">
      <rect id="矩形_1134" data-name="矩形 1134" class="cls-1" width="26" height="26"/>
    </clipPath>
  </defs>
  <g id="组_1175" data-name="组 1175" class="cls-2">
    <path id="路径_3624" data-name="路径 3624" class="cls-1" d="M22.75,0H3.25A3.249,3.249,0,0,0,0,3.25V17.875a3.249,3.249,0,0,0,3.25,3.25h19.5A3.249,3.249,0,0,0,26,17.875V3.25A3.249,3.249,0,0,0,22.75,0m1.625,17.875A1.628,1.628,0,0,1,22.75,19.5H13.813V7.6l5.507,5.507a.812.812,0,0,0,1.149-1.149L13.575,5.063a.824.824,0,0,0-.265-.174.806.806,0,0,0-.621,0,.787.787,0,0,0-.258.171l-.007,0L5.531,11.958A.812.812,0,0,0,6.68,13.107L12.188,7.6V19.5H3.25a1.628,1.628,0,0,1-1.625-1.625V3.25A1.628,1.628,0,0,1,3.25,1.625h19.5A1.628,1.628,0,0,1,24.375,3.25Z"/>
    <path id="路径_3625" data-name="路径 3625" class="cls-1" d="M18.438,15H3.813a.813.813,0,0,0,0,1.625H18.438a.813.813,0,0,0,0-1.625" transform="translate(1.875 9.375)"/>
  </g>
</svg>
