<svg id="双击热备" xmlns="http://www.w3.org/2000/svg" xmlns:xlink="http://www.w3.org/1999/xlink" width="26" height="26" viewBox="0 0 26 26">
  <defs>
    <style>
      .cls-1 {
        fill: #fff;
      }

      .cls-2 {
        clip-path: url(#clip-path);
      }
    </style>
    <clipPath id="clip-path">
      <rect id="矩形_1171" data-name="矩形 1171" class="cls-1" width="26" height="26"/>
    </clipPath>
  </defs>
  <g id="组_1189" data-name="组 1189" class="cls-2">
    <path id="路径_3642" data-name="路径 3642" class="cls-1" d="M23.187,0H9.313A2.816,2.816,0,0,0,6.5,2.813V8.125H2.182A2.182,2.182,0,0,0,0,10.307v13.51A2.182,2.182,0,0,0,2.182,26H17.318A2.182,2.182,0,0,0,19.5,23.818V19.5h3.687A2.816,2.816,0,0,0,26,16.687V2.813A2.817,2.817,0,0,0,23.187,0M1.625,10.307a.558.558,0,0,1,.557-.557H17.318a.558.558,0,0,1,.557.557v7.568H1.625Zm16.25,13.51a.558.558,0,0,1-.557.557H2.182a.558.558,0,0,1-.557-.557V19.5h16.25Zm6.5-7.131a1.189,1.189,0,0,1-1.188,1.188H19.5V10.307a2.182,2.182,0,0,0-2.182-2.182H8.125V2.813A1.189,1.189,0,0,1,9.313,1.625H23.187a1.189,1.189,0,0,1,1.188,1.188Z"/>
    <path id="路径_3643" data-name="路径 3643" class="cls-1" d="M8.625,7A1.625,1.625,0,1,0,10.25,8.625,1.626,1.626,0,0,0,8.625,7" transform="translate(4.375 4.375)"/>
    <rect id="矩形_1169" data-name="矩形 1169" class="cls-1" width="4.875" height="1.625" transform="translate(4.875 21.125)"/>
    <rect id="矩形_1170" data-name="矩形 1170" class="cls-1" width="3.25" height="1.625" transform="translate(13 21.125)"/>
  </g>
</svg>
