<svg id="系统状态" xmlns="http://www.w3.org/2000/svg" xmlns:xlink="http://www.w3.org/1999/xlink" width="26" height="26" viewBox="0 0 26 26">
  <defs>
    <style>
      .cls-1 {
        fill: #fff;
      }

      .cls-2 {
        clip-path: url(#clip-path);
      }
    </style>
    <clipPath id="clip-path">
      <rect id="矩形_1172" data-name="矩形 1172" class="cls-1" width="26" height="26"/>
    </clipPath>
  </defs>
  <g id="组_1190" data-name="组 1190" class="cls-2">
    <path id="路径_3644" data-name="路径 3644" class="cls-1" d="M22.75,0H3.25A3.159,3.159,0,0,0,0,3.06V22.942A3.158,3.158,0,0,0,3.25,26h19.5A3.158,3.158,0,0,0,26,22.942V3.06A3.159,3.159,0,0,0,22.75,0M3.25,1.529h19.5A1.583,1.583,0,0,1,24.375,3.06v9.924l-.007,0H18.454l-1.44-4.064a.868.868,0,0,0-1.542,0l-2.478,7-.837-2.356L10.532,7.444a.829.829,0,0,0-1.515-.156L5.991,12.982H1.625V3.06A1.583,1.583,0,0,1,3.25,1.529m19.5,22.942H3.25a1.581,1.581,0,0,1-1.625-1.529V14.513H6.494a.819.819,0,0,0,.726-.424L9.488,9.82,10.6,13.99l1.625,4.587a.83.83,0,0,0,1.542,0l2.48-7L17.1,13.99a.814.814,0,0,0,.772.523h6.5l.007,0v8.43a1.581,1.581,0,0,1-1.625,1.529"/>
  </g>
</svg>
