<svg xmlns="http://www.w3.org/2000/svg" xmlns:xlink="http://www.w3.org/1999/xlink" width="26" height="26" viewBox="0 0 26 26">
  <defs>
    <style>
      .cls-1 {
        fill: #fff;
      }

      .cls-2 {
        clip-path: url(#clip-path);
      }
    </style>
    <clipPath id="clip-path">
      <rect id="矩形_1157" data-name="矩形 1157" class="cls-1" width="26" height="26"/>
    </clipPath>
  </defs>
  <g id="系统时间" transform="translate(0 0)">
    <g id="组_1186" data-name="组 1186" class="cls-2" transform="translate(0 0)">
      <path id="路径_3635" data-name="路径 3635" class="cls-1" d="M24.375,1.625H17.841V.813a.813.813,0,0,0-1.625,0v.813h-6.5V.813a.813.813,0,0,0-1.625,0v.813H1.625A1.626,1.626,0,0,0,0,3.25V24.375A1.626,1.626,0,0,0,1.625,26h22.75A1.626,1.626,0,0,0,26,24.375V3.25a1.626,1.626,0,0,0-1.625-1.625m0,22.75H1.625V8.125H24.341V6.5H1.625V3.25H8.091v.813a.813.813,0,0,0,1.625,0V3.25h6.5v.813a.813.813,0,0,0,1.625,0V3.25h6.534Z" transform="translate(0 0)"/>
      <path id="路径_3636" data-name="路径 3636" class="cls-1" d="M10.5,6A6.5,6.5,0,1,0,17,12.5,6.5,6.5,0,0,0,10.5,6m4.792,5.687h-3.98V7.7a4.866,4.866,0,0,1,3.98,3.98M10.5,17.372A4.867,4.867,0,0,1,9.688,7.7v5.6h5.6A4.87,4.87,0,0,1,10.5,17.372" transform="translate(2.5 3.748)"/>
    </g>
  </g>
</svg>
