<svg id="系统升级" xmlns="http://www.w3.org/2000/svg" xmlns:xlink="http://www.w3.org/1999/xlink" width="26" height="26" viewBox="0 0 26 26">
  <defs>
    <style>
      .cls-1 {
        fill: #fff;
      }

      .cls-2 {
        clip-path: url(#clip-path);
      }
    </style>
    <clipPath id="clip-path">
      <rect id="矩形_1173" data-name="矩形 1173" class="cls-1" width="26" height="26"/>
    </clipPath>
  </defs>
  <g id="组_1191" data-name="组 1191" class="cls-2">
    <path id="路径_3645" data-name="路径 3645" class="cls-1" d="M22.75,0H3.25A3.249,3.249,0,0,0,0,3.25v19.5A3.249,3.249,0,0,0,3.25,26h19.5A3.249,3.249,0,0,0,26,22.75V3.25A3.249,3.249,0,0,0,22.75,0m1.625,22.75a1.628,1.628,0,0,1-1.625,1.625H3.25A1.628,1.628,0,0,1,1.625,22.75V3.25A1.628,1.628,0,0,1,3.25,1.625h19.5A1.628,1.628,0,0,1,24.375,3.25Z"/>
    <path id="路径_3646" data-name="路径 3646" class="cls-1" d="M11.539,3.237a.8.8,0,0,0-.263-.175.825.825,0,0,0-.622,0,.834.834,0,0,0-.257.171l-.007,0L3.5,10.132a.812.812,0,0,0,1.149,1.149l5.507-5.507V18.437a.813.813,0,0,0,1.625,0V5.774l5.509,5.507a.812.812,0,0,0,1.149-1.149Z" transform="translate(2.036 1.875)"/>
  </g>
</svg>
