<svg xmlns="http://www.w3.org/2000/svg" xmlns:xlink="http://www.w3.org/1999/xlink" width="16" height="16" viewBox="0 0 16 16"><defs><style>.a{fill:rgba(0,0,0,0);}.b{clip-path:url(#a);}.c{fill:#4d4d4d;}.d{clip-path:url(#b);}.e{fill:url(#c);}.f{clip-path:url(#d);}.g{fill:url(#e);}.h{clip-path:url(#f);}.i{fill:url(#g);}</style><clipPath id="a"><rect class="a" width="16" height="16"/></clipPath><clipPath id="b"><path class="a" d="M4.185,5.8V8.275A1.718,1.718,0,0,1,2.391,9.9,1.717,1.717,0,0,1,.6,8.275V5.8a.3.3,0,1,0-.6,0V8.275A2.315,2.315,0,0,0,2.391,10.5,2.315,2.315,0,0,0,4.783,8.275V5.8a.3.3,0,1,0-.6,0"/></clipPath><linearGradient id="c" y1="2.1" x2="0.209" y2="2.1" gradientUnits="objectBoundingBox"><stop offset="0" stop-color="#0170fe"/><stop offset="0.079" stop-color="#0579fd"/><stop offset="0.211" stop-color="#1092fd"/><stop offset="0.379" stop-color="#22bcfd"/><stop offset="0.552" stop-color="#38eefd"/><stop offset="0.865" stop-color="#31e5ff"/><stop offset="0.994" stop-color="#38eeff"/><stop offset="1" stop-color="#38eeff"/></linearGradient><clipPath id="d"><path class="a" d="M5.98,8.662V7.337A1.236,1.236,0,0,1,7.213,6.1H8.534A1.237,1.237,0,0,1,9.767,7.337V8.662A1.238,1.238,0,0,1,8.534,9.9H7.213A1.237,1.237,0,0,1,5.98,8.662M7.213,5.5A1.836,1.836,0,0,0,5.382,7.337V8.662A1.837,1.837,0,0,0,7.213,10.5H8.534a1.835,1.835,0,0,0,1.83-1.838V7.337A1.835,1.835,0,0,0,8.534,5.5Z"/></clipPath><linearGradient id="e" x1="-1.08" y1="2.1" x2="-0.88" y2="2.1" gradientUnits="objectBoundingBox"><stop offset="0" stop-color="#23a9fd"/><stop offset="0.179" stop-color="#1f9ffd"/><stop offset="0.473" stop-color="#1786fd"/><stop offset="0.552" stop-color="#157ffe"/><stop offset="0.865" stop-color="#00b9c3"/><stop offset="0.994" stop-color="#04dac0"/><stop offset="1" stop-color="#04dac0"/></linearGradient><clipPath id="f"><path class="a" d="M12.079,5.5a1.362,1.362,0,0,0-1.3,1.413,1.362,1.362,0,0,0,1.3,1.413H14.7a.713.713,0,0,1,.649.761.712.712,0,0,1-.649.761H11.255a.326.326,0,0,0,0,.652H14.7A1.361,1.361,0,0,0,16,9.087a1.361,1.361,0,0,0-1.3-1.413H12.079a.714.714,0,0,1-.65-.761.713.713,0,0,1,.65-.761H15A.326.326,0,0,0,15,5.5Z"/></clipPath><linearGradient id="g" x1="-2.065" y1="2.1" x2="-1.873" y2="2.1" gradientUnits="objectBoundingBox"><stop offset="0" stop-color="#00f3af"/><stop offset="0.206" stop-color="#00eab8"/><stop offset="0.548" stop-color="#00d3d1"/><stop offset="0.552" stop-color="#00d3d2"/><stop offset="0.865" stop-color="#01b3ee"/><stop offset="1" stop-color="#00a2fa"/></linearGradient></defs><g class="b"><path class="c" d="M12.073,16H3.926A3.927,3.927,0,0,1,0,12.074V3.926A3.927,3.927,0,0,1,3.926,0h8.147A3.926,3.926,0,0,1,16,3.926v8.148A3.926,3.926,0,0,1,12.073,16"/></g><g class="d"><rect class="e" width="4.783" height="5" transform="translate(0 5.5)"/></g><g class="f"><rect class="g" width="4.982" height="5" transform="translate(5.382 5.5)"/></g><g class="h"><rect class="i" width="5.221" height="5" transform="translate(10.779 5.5)"/></g></svg>